<?xml version="1.0" encoding="UTF-8" standalone="no"?>
<!DOCTYPE svg PUBLIC "-//W3C//DTD SVG 1.1//EN"
 "http://www.w3.org/Graphics/SVG/1.1/DTD/svg11.dtd">
<!-- Generated by graphviz version 2.36.0 (20140111.2315)
 -->
<!-- Title: lala Pages: 1 -->
<svg width="1430pt" height="116pt"
 viewBox="0.00 0.00 1430.00 116.00" xmlns="http://www.w3.org/2000/svg" xmlns:xlink="http://www.w3.org/1999/xlink">
<g id="graph0" class="graph" transform="scale(1 1) rotate(0) translate(4 112)">
<title>lala</title>
<polygon fill="white" stroke="none" points="-4,4 -4,-112 1426,-112 1426,4 -4,4"/>
<!-- 0 -->
<g id="node1" class="node"><title>0</title>
<ellipse fill="none" stroke="black" cx="315" cy="-90" rx="27" ry="18"/>
<text text-anchor="middle" x="315" y="-86.3" font-family="Times,serif" font-size="14.00">0</text>
</g>
<!-- 21 -->
<g id="node22" class="node"><title>21</title>
<ellipse fill="none" stroke="black" cx="387" cy="-18" rx="27" ry="18"/>
<text text-anchor="middle" x="387" y="-14.3" font-family="Times,serif" font-size="14.00">21</text>
</g>
<!-- 0&#45;&gt;21 -->
<g id="edge5" class="edge"><title>0&#45;&gt;21</title>
<path fill="none" stroke="black" d="M329.57,-74.8345C339.75,-64.9376 353.524,-51.5462 365.031,-40.3591"/>
<polygon fill="black" stroke="black" points="367.474,-42.865 372.204,-33.3847 362.595,-37.8461 367.474,-42.865"/>
</g>
<!-- 29 -->
<g id="node30" class="node"><title>29</title>
<ellipse fill="none" stroke="black" cx="171" cy="-18" rx="27" ry="18"/>
<text text-anchor="middle" x="171" y="-14.3" font-family="Times,serif" font-size="14.00">29</text>
</g>
<!-- 0&#45;&gt;29 -->
<g id="edge59" class="edge"><title>0&#45;&gt;29</title>
<path fill="none" stroke="black" d="M293.752,-78.6713C269.398,-66.8324 229.281,-47.3312 201.572,-33.8615"/>
<polygon fill="black" stroke="black" points="202.859,-30.5953 192.335,-29.3711 199.798,-36.8909 202.859,-30.5953"/>
</g>
<!-- 30 -->
<g id="node31" class="node"><title>30</title>
<ellipse fill="none" stroke="black" cx="459" cy="-18" rx="27" ry="18"/>
<text text-anchor="middle" x="459" y="-14.3" font-family="Times,serif" font-size="14.00">30</text>
</g>
<!-- 0&#45;&gt;30 -->
<g id="edge66" class="edge"><title>0&#45;&gt;30</title>
<path fill="none" stroke="black" d="M336.248,-78.6713C360.602,-66.8324 400.719,-47.3312 428.428,-33.8615"/>
<polygon fill="black" stroke="black" points="430.202,-36.8909 437.665,-29.3711 427.141,-30.5953 430.202,-36.8909"/>
</g>
<!-- 1 -->
<g id="node2" class="node"><title>1</title>
<ellipse fill="none" stroke="black" cx="675" cy="-90" rx="27" ry="18"/>
<text text-anchor="middle" x="675" y="-86.3" font-family="Times,serif" font-size="14.00">1</text>
</g>
<!-- 20 -->
<g id="node21" class="node"><title>20</title>
<ellipse fill="none" stroke="black" cx="243" cy="-18" rx="27" ry="18"/>
<text text-anchor="middle" x="243" y="-14.3" font-family="Times,serif" font-size="14.00">20</text>
</g>
<!-- 1&#45;&gt;20 -->
<g id="edge1" class="edge"><title>1&#45;&gt;20</title>
<path fill="none" stroke="black" d="M654.525,-77.8617C649.567,-75.581 644.195,-73.4402 639,-72 484.046,-29.0444 433.954,-78.9556 279,-36 277.052,-35.4599 275.079,-34.8213 273.112,-34.1138"/>
<polygon fill="black" stroke="black" points="274.054,-30.7164 263.475,-30.1383 271.385,-37.1874 274.054,-30.7164"/>
</g>
<!-- 1&#45;&gt;21 -->
<g id="edge7" class="edge"><title>1&#45;&gt;21</title>
<path fill="none" stroke="black" d="M654.452,-78.1072C649.497,-75.8164 644.145,-73.6095 639,-72 546.114,-42.9447 515.886,-65.0553 423,-36 421.07,-35.3964 419.112,-34.7089 417.156,-33.9644"/>
<polygon fill="black" stroke="black" points="418.121,-30.5719 407.548,-29.8928 415.39,-37.0171 418.121,-30.5719"/>
</g>
<!-- 22 -->
<g id="node23" class="node"><title>22</title>
<ellipse fill="none" stroke="black" cx="315" cy="-18" rx="27" ry="18"/>
<text text-anchor="middle" x="315" y="-14.3" font-family="Times,serif" font-size="14.00">22</text>
</g>
<!-- 1&#45;&gt;22 -->
<g id="edge11" class="edge"><title>1&#45;&gt;22</title>
<path fill="none" stroke="black" d="M654.498,-77.9545C649.541,-75.67 644.177,-73.5042 639,-72 515.127,-36.0083 474.873,-71.9917 351,-36 349.059,-35.4359 347.091,-34.7788 345.128,-34.0573"/>
<polygon fill="black" stroke="black" points="346.079,-30.6616 335.502,-30.0455 343.386,-37.123 346.079,-30.6616"/>
</g>
<!-- 23 -->
<g id="node24" class="node"><title>23</title>
<ellipse fill="none" stroke="black" cx="819" cy="-18" rx="27" ry="18"/>
<text text-anchor="middle" x="819" y="-14.3" font-family="Times,serif" font-size="14.00">23</text>
</g>
<!-- 1&#45;&gt;23 -->
<g id="edge17" class="edge"><title>1&#45;&gt;23</title>
<path fill="none" stroke="black" d="M696.248,-78.6713C720.602,-66.8324 760.719,-47.3312 788.428,-33.8615"/>
<polygon fill="black" stroke="black" points="790.202,-36.8909 797.665,-29.3711 787.141,-30.5953 790.202,-36.8909"/>
</g>
<!-- 24 -->
<g id="node25" class="node"><title>24</title>
<ellipse fill="none" stroke="black" cx="729" cy="-18" rx="27" ry="18"/>
<text text-anchor="middle" x="729" y="-14.3" font-family="Times,serif" font-size="14.00">24</text>
</g>
<!-- 1&#45;&gt;24 -->
<g id="edge24" class="edge"><title>1&#45;&gt;24</title>
<path fill="none" stroke="black" d="M686.984,-73.4647C693.976,-64.4021 702.936,-52.7865 710.785,-42.6119"/>
<polygon fill="black" stroke="black" points="713.712,-44.5475 717.049,-34.4918 708.17,-40.2719 713.712,-44.5475"/>
</g>
<!-- 25 -->
<g id="node26" class="node"><title>25</title>
<ellipse fill="none" stroke="black" cx="657" cy="-18" rx="27" ry="18"/>
<text text-anchor="middle" x="657" y="-14.3" font-family="Times,serif" font-size="14.00">25</text>
</g>
<!-- 1&#45;&gt;25 -->
<g id="edge27" class="edge"><title>1&#45;&gt;25</title>
<path fill="none" stroke="black" d="M670.643,-72.055C668.609,-64.1446 666.139,-54.5398 663.863,-45.6879"/>
<polygon fill="black" stroke="black" points="667.197,-44.6023 661.317,-35.789 660.418,-46.3456 667.197,-44.6023"/>
</g>
<!-- 26 -->
<g id="node27" class="node"><title>26</title>
<ellipse fill="none" stroke="black" cx="963" cy="-18" rx="27" ry="18"/>
<text text-anchor="middle" x="963" y="-14.3" font-family="Times,serif" font-size="14.00">26</text>
</g>
<!-- 1&#45;&gt;26 -->
<g id="edge32" class="edge"><title>1&#45;&gt;26</title>
<path fill="none" stroke="black" d="M695.599,-78.264C700.551,-75.9667 705.89,-73.7176 711,-72 750.677,-58.6644 867.142,-36.4803 926.829,-25.5278"/>
<polygon fill="black" stroke="black" points="927.729,-28.9214 936.937,-23.6808 926.471,-22.0354 927.729,-28.9214"/>
</g>
<!-- 27 -->
<g id="node28" class="node"><title>27</title>
<ellipse fill="none" stroke="black" cx="549" cy="-18" rx="27" ry="18"/>
<text text-anchor="middle" x="549" y="-14.3" font-family="Times,serif" font-size="14.00">27</text>
</g>
<!-- 1&#45;&gt;27 -->
<g id="edge41" class="edge"><title>1&#45;&gt;27</title>
<path fill="none" stroke="black" d="M654.756,-77.7533C633.998,-66.2213 601.516,-48.1754 578.025,-35.1249"/>
<polygon fill="black" stroke="black" points="579.635,-32.0157 569.194,-30.2188 576.236,-38.1348 579.635,-32.0157"/>
</g>
<!-- 28 -->
<g id="node29" class="node"><title>28</title>
<ellipse fill="none" stroke="black" cx="1035" cy="-18" rx="27" ry="18"/>
<text text-anchor="middle" x="1035" y="-14.3" font-family="Times,serif" font-size="14.00">28</text>
</g>
<!-- 1&#45;&gt;28 -->
<g id="edge49" class="edge"><title>1&#45;&gt;28</title>
<path fill="none" stroke="black" d="M695.502,-77.9545C700.459,-75.67 705.823,-73.5042 711,-72 834.873,-36.0083 875.127,-71.9917 999,-36 1000.94,-35.4359 1002.91,-34.7788 1004.87,-34.0573"/>
<polygon fill="black" stroke="black" points="1006.61,-37.123 1014.5,-30.0455 1003.92,-30.6616 1006.61,-37.123"/>
</g>
<!-- 1&#45;&gt;30 -->
<g id="edge67" class="edge"><title>1&#45;&gt;30</title>
<path fill="none" stroke="black" d="M653.927,-78.3479C649.087,-76.0987 643.917,-73.8492 639,-72 584.487,-51.4974 568.781,-52.7459 513,-36 506.359,-34.0063 499.277,-31.8205 492.502,-29.6998"/>
<polygon fill="black" stroke="black" points="493.472,-26.3357 482.882,-26.6692 491.369,-33.0123 493.472,-26.3357"/>
</g>
<!-- 2 -->
<g id="node3" class="node"><title>2</title>
<ellipse fill="none" stroke="black" cx="1323" cy="-90" rx="27" ry="18"/>
<text text-anchor="middle" x="1323" y="-86.3" font-family="Times,serif" font-size="14.00">2</text>
</g>
<!-- 2&#45;&gt;26 -->
<g id="edge30" class="edge"><title>2&#45;&gt;26</title>
<path fill="none" stroke="black" d="M1302.5,-77.9545C1297.54,-75.67 1292.18,-73.5042 1287,-72 1163.13,-36.0083 1122.87,-71.9917 999,-36 997.059,-35.4359 995.091,-34.7788 993.128,-34.0573"/>
<polygon fill="black" stroke="black" points="994.079,-30.6616 983.502,-30.0455 991.386,-37.123 994.079,-30.6616"/>
</g>
<!-- 2&#45;&gt;28 -->
<g id="edge47" class="edge"><title>2&#45;&gt;28</title>
<path fill="none" stroke="black" d="M1302.4,-78.264C1297.45,-75.9667 1292.11,-73.7176 1287,-72 1212.23,-46.8682 1120.81,-31.202 1071.22,-23.8924"/>
<polygon fill="black" stroke="black" points="1071.69,-20.4242 1061.29,-22.459 1070.69,-27.3523 1071.69,-20.4242"/>
</g>
<!-- 3 -->
<g id="node4" class="node"><title>3</title>
<ellipse fill="none" stroke="black" cx="747" cy="-90" rx="27" ry="18"/>
<text text-anchor="middle" x="747" y="-86.3" font-family="Times,serif" font-size="14.00">3</text>
</g>
<!-- 3&#45;&gt;21 -->
<g id="edge6" class="edge"><title>3&#45;&gt;21</title>
<path fill="none" stroke="black" d="M726.498,-77.9545C721.541,-75.67 716.177,-73.5042 711,-72 587.127,-36.0083 546.873,-71.9917 423,-36 421.059,-35.4359 419.091,-34.7788 417.128,-34.0573"/>
<polygon fill="black" stroke="black" points="418.079,-30.6616 407.502,-30.0455 415.386,-37.123 418.079,-30.6616"/>
</g>
<!-- 3&#45;&gt;26 -->
<g id="edge31" class="edge"><title>3&#45;&gt;26</title>
<path fill="none" stroke="black" d="M768.084,-78.3773C772.924,-76.1266 778.091,-73.869 783,-72 832.396,-53.1947 891.48,-36.9376 928.132,-27.5522"/>
<polygon fill="black" stroke="black" points="929.014,-30.9394 937.848,-25.0908 927.295,-24.1537 929.014,-30.9394"/>
</g>
<!-- 3&#45;&gt;28 -->
<g id="edge48" class="edge"><title>3&#45;&gt;28</title>
<path fill="none" stroke="black" d="M767.548,-78.1072C772.503,-75.8164 777.855,-73.6095 783,-72 875.886,-42.9447 906.114,-65.0553 999,-36 1000.93,-35.3964 1002.89,-34.7089 1004.84,-33.9644"/>
<polygon fill="black" stroke="black" points="1006.61,-37.0171 1014.45,-29.8928 1003.88,-30.5719 1006.61,-37.0171"/>
</g>
<!-- 3&#45;&gt;29 -->
<g id="edge60" class="edge"><title>3&#45;&gt;29</title>
<path fill="none" stroke="black" d="M726.934,-77.9301C721.87,-75.5871 716.349,-73.4014 711,-72 493.762,-15.0829 424.238,-92.9171 207,-36 204.827,-35.4307 202.626,-34.7319 200.438,-33.9457"/>
<polygon fill="black" stroke="black" points="201.644,-30.6573 191.066,-30.0699 198.969,-37.1259 201.644,-30.6573"/>
</g>
<!-- 4 -->
<g id="node5" class="node"><title>4</title>
<ellipse fill="none" stroke="black" cx="243" cy="-90" rx="27" ry="18"/>
<text text-anchor="middle" x="243" y="-86.3" font-family="Times,serif" font-size="14.00">4</text>
</g>
<!-- 4&#45;&gt;20 -->
<g id="edge2" class="edge"><title>4&#45;&gt;20</title>
<path fill="none" stroke="black" d="M243,-71.6966C243,-63.9827 243,-54.7125 243,-46.1124"/>
<polygon fill="black" stroke="black" points="246.5,-46.1043 243,-36.1043 239.5,-46.1044 246.5,-46.1043"/>
</g>
<!-- 4&#45;&gt;22 -->
<g id="edge12" class="edge"><title>4&#45;&gt;22</title>
<path fill="none" stroke="black" d="M257.57,-74.8345C267.75,-64.9376 281.524,-51.5462 293.031,-40.3591"/>
<polygon fill="black" stroke="black" points="295.474,-42.865 300.204,-33.3847 290.595,-37.8461 295.474,-42.865"/>
</g>
<!-- 4&#45;&gt;23 -->
<g id="edge18" class="edge"><title>4&#45;&gt;23</title>
<path fill="none" stroke="black" d="M263.068,-77.94C268.132,-75.5968 273.653,-73.4085 279,-72 488.447,-16.8295 552.284,-76.7916 765,-36 771.939,-34.6693 779.24,-32.7453 786.151,-30.6662"/>
<polygon fill="black" stroke="black" points="787.444,-33.9279 795.912,-27.5601 785.321,-27.2575 787.444,-33.9279"/>
</g>
<!-- 4&#45;&gt;29 -->
<g id="edge61" class="edge"><title>4&#45;&gt;29</title>
<path fill="none" stroke="black" d="M228.43,-74.8345C218.25,-64.9376 204.476,-51.5462 192.969,-40.3591"/>
<polygon fill="black" stroke="black" points="195.405,-37.8461 185.796,-33.3847 190.526,-42.865 195.405,-37.8461"/>
</g>
<!-- 5 -->
<g id="node6" class="node"><title>5</title>
<ellipse fill="none" stroke="black" cx="171" cy="-90" rx="27" ry="18"/>
<text text-anchor="middle" x="171" y="-86.3" font-family="Times,serif" font-size="14.00">5</text>
</g>
<!-- 5&#45;&gt;20 -->
<g id="edge3" class="edge"><title>5&#45;&gt;20</title>
<path fill="none" stroke="black" d="M185.57,-74.8345C195.75,-64.9376 209.524,-51.5462 221.031,-40.3591"/>
<polygon fill="black" stroke="black" points="223.474,-42.865 228.204,-33.3847 218.595,-37.8461 223.474,-42.865"/>
</g>
<!-- 5&#45;&gt;21 -->
<g id="edge8" class="edge"><title>5&#45;&gt;21</title>
<path fill="none" stroke="black" d="M192.028,-78.2261C196.871,-75.9832 202.053,-73.767 207,-72 269.125,-49.8086 288.875,-58.1914 351,-36 352.855,-35.3374 354.743,-34.6116 356.634,-33.8449"/>
<polygon fill="black" stroke="black" points="358.204,-36.9789 365.972,-29.7739 355.406,-30.5622 358.204,-36.9789"/>
</g>
<!-- 5&#45;&gt;22 -->
<g id="edge13" class="edge"><title>5&#45;&gt;22</title>
<path fill="none" stroke="black" d="M192.248,-78.6713C216.602,-66.8324 256.719,-47.3312 284.428,-33.8615"/>
<polygon fill="black" stroke="black" points="286.202,-36.8909 293.665,-29.3711 283.141,-30.5953 286.202,-36.8909"/>
</g>
<!-- 5&#45;&gt;29 -->
<g id="edge62" class="edge"><title>5&#45;&gt;29</title>
<path fill="none" stroke="black" d="M171,-71.6966C171,-63.9827 171,-54.7125 171,-46.1124"/>
<polygon fill="black" stroke="black" points="174.5,-46.1043 171,-36.1043 167.5,-46.1044 174.5,-46.1043"/>
</g>
<!-- 6 -->
<g id="node7" class="node"><title>6</title>
<ellipse fill="none" stroke="black" cx="99" cy="-90" rx="27" ry="18"/>
<text text-anchor="middle" x="99" y="-86.3" font-family="Times,serif" font-size="14.00">6</text>
</g>
<!-- 6&#45;&gt;22 -->
<g id="edge14" class="edge"><title>6&#45;&gt;22</title>
<path fill="none" stroke="black" d="M120.028,-78.2261C124.871,-75.9832 130.053,-73.767 135,-72 197.125,-49.8086 216.875,-58.1914 279,-36 280.855,-35.3374 282.743,-34.6116 284.634,-33.8449"/>
<polygon fill="black" stroke="black" points="286.204,-36.9789 293.972,-29.7739 283.406,-30.5622 286.204,-36.9789"/>
</g>
<!-- 6&#45;&gt;29 -->
<g id="edge63" class="edge"><title>6&#45;&gt;29</title>
<path fill="none" stroke="black" d="M113.57,-74.8345C123.75,-64.9376 137.524,-51.5462 149.031,-40.3591"/>
<polygon fill="black" stroke="black" points="151.474,-42.865 156.204,-33.3847 146.595,-37.8461 151.474,-42.865"/>
</g>
<!-- 7 -->
<g id="node8" class="node"><title>7</title>
<ellipse fill="none" stroke="black" cx="603" cy="-90" rx="27" ry="18"/>
<text text-anchor="middle" x="603" y="-86.3" font-family="Times,serif" font-size="14.00">7</text>
</g>
<!-- 7&#45;&gt;20 -->
<g id="edge4" class="edge"><title>7&#45;&gt;20</title>
<path fill="none" stroke="black" d="M582.498,-77.9545C577.541,-75.67 572.177,-73.5042 567,-72 443.127,-36.0083 402.873,-71.9917 279,-36 277.059,-35.4359 275.091,-34.7788 273.128,-34.0573"/>
<polygon fill="black" stroke="black" points="274.079,-30.6616 263.502,-30.0455 271.386,-37.123 274.079,-30.6616"/>
</g>
<!-- 7&#45;&gt;21 -->
<g id="edge9" class="edge"><title>7&#45;&gt;21</title>
<path fill="none" stroke="black" d="M581.972,-78.2261C577.129,-75.9832 571.947,-73.767 567,-72 504.875,-49.8086 485.125,-58.1914 423,-36 421.145,-35.3374 419.257,-34.6116 417.366,-33.8449"/>
<polygon fill="black" stroke="black" points="418.594,-30.5622 408.028,-29.7739 415.796,-36.9789 418.594,-30.5622"/>
</g>
<!-- 7&#45;&gt;22 -->
<g id="edge15" class="edge"><title>7&#45;&gt;22</title>
<path fill="none" stroke="black" d="M582.452,-78.1072C577.497,-75.8164 572.145,-73.6095 567,-72 474.114,-42.9447 443.886,-65.0553 351,-36 349.07,-35.3964 347.112,-34.7089 345.156,-33.9644"/>
<polygon fill="black" stroke="black" points="346.121,-30.5719 335.548,-29.8928 343.39,-37.0171 346.121,-30.5719"/>
</g>
<!-- 7&#45;&gt;23 -->
<g id="edge19" class="edge"><title>7&#45;&gt;23</title>
<path fill="none" stroke="black" d="M624.073,-78.3479C628.913,-76.0987 634.083,-73.8492 639,-72 693.513,-51.4974 709.219,-52.7459 765,-36 771.641,-34.0063 778.723,-31.8205 785.498,-29.6998"/>
<polygon fill="black" stroke="black" points="786.631,-33.0123 795.118,-26.6692 784.528,-26.3357 786.631,-33.0123"/>
</g>
<!-- 7&#45;&gt;24 -->
<g id="edge25" class="edge"><title>7&#45;&gt;24</title>
<path fill="none" stroke="black" d="M623.244,-77.7533C644.002,-66.2213 676.484,-48.1754 699.975,-35.1249"/>
<polygon fill="black" stroke="black" points="701.764,-38.1348 708.806,-30.2188 698.365,-32.0157 701.764,-38.1348"/>
</g>
<!-- 7&#45;&gt;25 -->
<g id="edge28" class="edge"><title>7&#45;&gt;25</title>
<path fill="none" stroke="black" d="M614.984,-73.4647C621.976,-64.4021 630.936,-52.7865 638.785,-42.6119"/>
<polygon fill="black" stroke="black" points="641.712,-44.5475 645.049,-34.4918 636.17,-40.2719 641.712,-44.5475"/>
</g>
<!-- 7&#45;&gt;26 -->
<g id="edge33" class="edge"><title>7&#45;&gt;26</title>
<path fill="none" stroke="black" d="M623.544,-78.096C628.499,-75.8056 633.852,-73.6018 639,-72 645.875,-69.8609 843.835,-38.0659 926.881,-24.7735"/>
<polygon fill="black" stroke="black" points="927.561,-28.2093 936.882,-23.1732 926.455,-21.2973 927.561,-28.2093"/>
</g>
<!-- 7&#45;&gt;27 -->
<g id="edge42" class="edge"><title>7&#45;&gt;27</title>
<path fill="none" stroke="black" d="M591.016,-73.4647C584.024,-64.4021 575.064,-52.7865 567.215,-42.6119"/>
<polygon fill="black" stroke="black" points="569.83,-40.2719 560.951,-34.4918 564.288,-44.5475 569.83,-40.2719"/>
</g>
<!-- 7&#45;&gt;28 -->
<g id="edge50" class="edge"><title>7&#45;&gt;28</title>
<path fill="none" stroke="black" d="M623.475,-77.8617C628.433,-75.581 633.805,-73.4402 639,-72 793.954,-29.0444 844.046,-78.9556 999,-36 1000.95,-35.4599 1002.92,-34.8213 1004.89,-34.1138"/>
<polygon fill="black" stroke="black" points="1006.62,-37.1874 1014.52,-30.1383 1003.95,-30.7164 1006.62,-37.1874"/>
</g>
<!-- 7&#45;&gt;29 -->
<g id="edge64" class="edge"><title>7&#45;&gt;29</title>
<path fill="none" stroke="black" d="M582.525,-77.8617C577.567,-75.581 572.195,-73.4402 567,-72 412.046,-29.0444 361.954,-78.9556 207,-36 205.052,-35.4599 203.079,-34.8213 201.112,-34.1138"/>
<polygon fill="black" stroke="black" points="202.054,-30.7164 191.475,-30.1383 199.385,-37.1874 202.054,-30.7164"/>
</g>
<!-- 7&#45;&gt;30 -->
<g id="edge68" class="edge"><title>7&#45;&gt;30</title>
<path fill="none" stroke="black" d="M581.752,-78.6713C557.398,-66.8324 517.281,-47.3312 489.572,-33.8615"/>
<polygon fill="black" stroke="black" points="490.859,-30.5953 480.335,-29.3711 487.798,-36.8909 490.859,-30.5953"/>
</g>
<!-- 8 -->
<g id="node9" class="node"><title>8</title>
<ellipse fill="none" stroke="black" cx="27" cy="-90" rx="27" ry="18"/>
<text text-anchor="middle" x="27" y="-86.3" font-family="Times,serif" font-size="14.00">8</text>
</g>
<!-- 8&#45;&gt;29 -->
<g id="edge65" class="edge"><title>8&#45;&gt;29</title>
<path fill="none" stroke="black" d="M48.2477,-78.6713C72.6018,-66.8324 112.719,-47.3312 140.428,-33.8615"/>
<polygon fill="black" stroke="black" points="142.202,-36.8909 149.665,-29.3711 139.141,-30.5953 142.202,-36.8909"/>
</g>
<!-- 9 -->
<g id="node10" class="node"><title>9</title>
<ellipse fill="none" stroke="black" cx="819" cy="-90" rx="27" ry="18"/>
<text text-anchor="middle" x="819" y="-86.3" font-family="Times,serif" font-size="14.00">9</text>
</g>
<!-- 9&#45;&gt;22 -->
<g id="edge16" class="edge"><title>9&#45;&gt;22</title>
<path fill="none" stroke="black" d="M798.542,-77.7994C793.583,-75.5212 788.207,-73.3972 783,-72 596.917,-22.0673 537.083,-85.9327 351,-36 349.047,-35.476 347.071,-34.8499 345.102,-34.1517"/>
<polygon fill="black" stroke="black" points="346.039,-30.7533 335.458,-30.2006 343.385,-37.2307 346.039,-30.7533"/>
</g>
<!-- 9&#45;&gt;23 -->
<g id="edge20" class="edge"><title>9&#45;&gt;23</title>
<path fill="none" stroke="black" d="M819,-71.6966C819,-63.9827 819,-54.7125 819,-46.1124"/>
<polygon fill="black" stroke="black" points="822.5,-46.1043 819,-36.1043 815.5,-46.1044 822.5,-46.1043"/>
</g>
<!-- 9&#45;&gt;25 -->
<g id="edge29" class="edge"><title>9&#45;&gt;25</title>
<path fill="none" stroke="black" d="M797.777,-78.7168C792.945,-76.4485 787.816,-74.0979 783,-72 743.504,-54.7941 732.496,-53.2059 693,-36 691.194,-35.2133 689.344,-34.391 687.482,-33.5509"/>
<polygon fill="black" stroke="black" points="688.77,-30.2904 678.223,-29.2832 685.839,-36.6477 688.77,-30.2904"/>
</g>
<!-- 9&#45;&gt;26 -->
<g id="edge34" class="edge"><title>9&#45;&gt;26</title>
<path fill="none" stroke="black" d="M840.248,-78.6713C864.602,-66.8324 904.719,-47.3312 932.428,-33.8615"/>
<polygon fill="black" stroke="black" points="934.202,-36.8909 941.665,-29.3711 931.141,-30.5953 934.202,-36.8909"/>
</g>
<!-- 9&#45;&gt;28 -->
<g id="edge51" class="edge"><title>9&#45;&gt;28</title>
<path fill="none" stroke="black" d="M840.028,-78.2261C844.871,-75.9832 850.053,-73.767 855,-72 917.125,-49.8086 936.875,-58.1914 999,-36 1000.86,-35.3374 1002.74,-34.6116 1004.63,-33.8449"/>
<polygon fill="black" stroke="black" points="1006.2,-36.9789 1013.97,-29.7739 1003.41,-30.5622 1006.2,-36.9789"/>
</g>
<!-- 10 -->
<g id="node11" class="node"><title>10</title>
<ellipse fill="none" stroke="black" cx="1395" cy="-90" rx="27" ry="18"/>
<text text-anchor="middle" x="1395" y="-86.3" font-family="Times,serif" font-size="14.00">10</text>
</g>
<!-- 10&#45;&gt;28 -->
<g id="edge52" class="edge"><title>10&#45;&gt;28</title>
<path fill="none" stroke="black" d="M1374.46,-78.096C1369.5,-75.8056 1364.15,-73.6018 1359,-72 1258.11,-40.6087 1133.45,-26.8892 1072.34,-21.7084"/>
<polygon fill="black" stroke="black" points="1072.29,-18.1928 1062.04,-20.8656 1071.72,-25.1695 1072.29,-18.1928"/>
</g>
<!-- 11 -->
<g id="node12" class="node"><title>11</title>
<ellipse fill="none" stroke="black" cx="459" cy="-90" rx="27" ry="18"/>
<text text-anchor="middle" x="459" y="-86.3" font-family="Times,serif" font-size="14.00">11</text>
</g>
<!-- 11&#45;&gt;27 -->
<g id="edge43" class="edge"><title>11&#45;&gt;27</title>
<path fill="none" stroke="black" d="M475.928,-75.8335C489.505,-65.2741 508.757,-50.3001 524.092,-38.3728"/>
<polygon fill="black" stroke="black" points="526.403,-41.0096 532.148,-32.1074 522.105,-35.4841 526.403,-41.0096"/>
</g>
<!-- 11&#45;&gt;30 -->
<g id="edge69" class="edge"><title>11&#45;&gt;30</title>
<path fill="none" stroke="black" d="M459,-71.6966C459,-63.9827 459,-54.7125 459,-46.1124"/>
<polygon fill="black" stroke="black" points="462.5,-46.1043 459,-36.1043 455.5,-46.1044 462.5,-46.1043"/>
</g>
<!-- 12 -->
<g id="node13" class="node"><title>12</title>
<ellipse fill="none" stroke="black" cx="963" cy="-90" rx="27" ry="18"/>
<text text-anchor="middle" x="963" y="-86.3" font-family="Times,serif" font-size="14.00">12</text>
</g>
<!-- 12&#45;&gt;23 -->
<g id="edge21" class="edge"><title>12&#45;&gt;23</title>
<path fill="none" stroke="black" d="M941.752,-78.6713C917.398,-66.8324 877.281,-47.3312 849.572,-33.8615"/>
<polygon fill="black" stroke="black" points="850.859,-30.5953 840.335,-29.3711 847.798,-36.8909 850.859,-30.5953"/>
</g>
<!-- 12&#45;&gt;26 -->
<g id="edge35" class="edge"><title>12&#45;&gt;26</title>
<path fill="none" stroke="black" d="M963,-71.6966C963,-63.9827 963,-54.7125 963,-46.1124"/>
<polygon fill="black" stroke="black" points="966.5,-46.1043 963,-36.1043 959.5,-46.1044 966.5,-46.1043"/>
</g>
<!-- 12&#45;&gt;28 -->
<g id="edge53" class="edge"><title>12&#45;&gt;28</title>
<path fill="none" stroke="black" d="M977.57,-74.8345C987.75,-64.9376 1001.52,-51.5462 1013.03,-40.3591"/>
<polygon fill="black" stroke="black" points="1015.47,-42.865 1020.2,-33.3847 1010.59,-37.8461 1015.47,-42.865"/>
</g>
<!-- 13 -->
<g id="node14" class="node"><title>13</title>
<ellipse fill="none" stroke="black" cx="1035" cy="-90" rx="27" ry="18"/>
<text text-anchor="middle" x="1035" y="-86.3" font-family="Times,serif" font-size="14.00">13</text>
</g>
<!-- 13&#45;&gt;23 -->
<g id="edge22" class="edge"><title>13&#45;&gt;23</title>
<path fill="none" stroke="black" d="M1013.92,-78.3773C1009.08,-76.1266 1003.91,-73.869 999,-72 949.604,-53.1947 890.52,-36.9376 853.868,-27.5522"/>
<polygon fill="black" stroke="black" points="854.705,-24.1537 844.152,-25.0908 852.986,-30.9394 854.705,-24.1537"/>
</g>
<!-- 13&#45;&gt;26 -->
<g id="edge36" class="edge"><title>13&#45;&gt;26</title>
<path fill="none" stroke="black" d="M1020.43,-74.8345C1010.25,-64.9376 996.476,-51.5462 984.969,-40.3591"/>
<polygon fill="black" stroke="black" points="987.405,-37.8461 977.796,-33.3847 982.526,-42.865 987.405,-37.8461"/>
</g>
<!-- 13&#45;&gt;28 -->
<g id="edge54" class="edge"><title>13&#45;&gt;28</title>
<path fill="none" stroke="black" d="M1035,-71.6966C1035,-63.9827 1035,-54.7125 1035,-46.1124"/>
<polygon fill="black" stroke="black" points="1038.5,-46.1043 1035,-36.1043 1031.5,-46.1044 1038.5,-46.1043"/>
</g>
<!-- 14 -->
<g id="node15" class="node"><title>14</title>
<ellipse fill="none" stroke="black" cx="1107" cy="-90" rx="27" ry="18"/>
<text text-anchor="middle" x="1107" y="-86.3" font-family="Times,serif" font-size="14.00">14</text>
</g>
<!-- 14&#45;&gt;23 -->
<g id="edge23" class="edge"><title>14&#45;&gt;23</title>
<path fill="none" stroke="black" d="M1086.4,-78.264C1081.45,-75.9667 1076.11,-73.7176 1071,-72 1031.32,-58.6644 914.858,-36.4803 855.171,-25.5278"/>
<polygon fill="black" stroke="black" points="855.529,-22.0354 845.063,-23.6808 854.271,-28.9214 855.529,-22.0354"/>
</g>
<!-- 14&#45;&gt;26 -->
<g id="edge37" class="edge"><title>14&#45;&gt;26</title>
<path fill="none" stroke="black" d="M1085.75,-78.6713C1061.4,-66.8324 1021.28,-47.3312 993.572,-33.8615"/>
<polygon fill="black" stroke="black" points="994.859,-30.5953 984.335,-29.3711 991.798,-36.8909 994.859,-30.5953"/>
</g>
<!-- 14&#45;&gt;28 -->
<g id="edge55" class="edge"><title>14&#45;&gt;28</title>
<path fill="none" stroke="black" d="M1092.43,-74.8345C1082.25,-64.9376 1068.48,-51.5462 1056.97,-40.3591"/>
<polygon fill="black" stroke="black" points="1059.41,-37.8461 1049.8,-33.3847 1054.53,-42.865 1059.41,-37.8461"/>
</g>
<!-- 15 -->
<g id="node16" class="node"><title>15</title>
<ellipse fill="none" stroke="black" cx="531" cy="-90" rx="27" ry="18"/>
<text text-anchor="middle" x="531" y="-86.3" font-family="Times,serif" font-size="14.00">15</text>
</g>
<!-- 15&#45;&gt;27 -->
<g id="edge44" class="edge"><title>15&#45;&gt;27</title>
<path fill="none" stroke="black" d="M535.357,-72.055C537.391,-64.1446 539.861,-54.5398 542.137,-45.6879"/>
<polygon fill="black" stroke="black" points="545.582,-46.3456 544.683,-35.789 538.803,-44.6023 545.582,-46.3456"/>
</g>
<!-- 16 -->
<g id="node17" class="node"><title>16</title>
<ellipse fill="none" stroke="black" cx="387" cy="-90" rx="27" ry="18"/>
<text text-anchor="middle" x="387" y="-86.3" font-family="Times,serif" font-size="14.00">16</text>
</g>
<!-- 16&#45;&gt;21 -->
<g id="edge10" class="edge"><title>16&#45;&gt;21</title>
<path fill="none" stroke="black" d="M387,-71.6966C387,-63.9827 387,-54.7125 387,-46.1124"/>
<polygon fill="black" stroke="black" points="390.5,-46.1043 387,-36.1043 383.5,-46.1044 390.5,-46.1043"/>
</g>
<!-- 16&#45;&gt;27 -->
<g id="edge45" class="edge"><title>16&#45;&gt;27</title>
<path fill="none" stroke="black" d="M408.25,-78.7798C413.081,-76.5082 418.203,-74.1404 423,-72 454.76,-57.8294 491.448,-42.5147 517.014,-32.0095"/>
<polygon fill="black" stroke="black" points="518.643,-35.1243 526.57,-28.0941 515.989,-28.6469 518.643,-35.1243"/>
</g>
<!-- 16&#45;&gt;30 -->
<g id="edge70" class="edge"><title>16&#45;&gt;30</title>
<path fill="none" stroke="black" d="M401.57,-74.8345C411.75,-64.9376 425.524,-51.5462 437.031,-40.3591"/>
<polygon fill="black" stroke="black" points="439.474,-42.865 444.204,-33.3847 434.595,-37.8461 439.474,-42.865"/>
</g>
<!-- 17 -->
<g id="node18" class="node"><title>17</title>
<ellipse fill="none" stroke="black" cx="1179" cy="-90" rx="27" ry="18"/>
<text text-anchor="middle" x="1179" y="-86.3" font-family="Times,serif" font-size="14.00">17</text>
</g>
<!-- 17&#45;&gt;26 -->
<g id="edge38" class="edge"><title>17&#45;&gt;26</title>
<path fill="none" stroke="black" d="M1157.97,-78.2261C1153.13,-75.9832 1147.95,-73.767 1143,-72 1080.87,-49.8086 1061.13,-58.1914 999,-36 997.145,-35.3374 995.257,-34.6116 993.366,-33.8449"/>
<polygon fill="black" stroke="black" points="994.594,-30.5622 984.028,-29.7739 991.796,-36.9789 994.594,-30.5622"/>
</g>
<!-- 17&#45;&gt;28 -->
<g id="edge56" class="edge"><title>17&#45;&gt;28</title>
<path fill="none" stroke="black" d="M1157.75,-78.6713C1133.4,-66.8324 1093.28,-47.3312 1065.57,-33.8615"/>
<polygon fill="black" stroke="black" points="1066.86,-30.5953 1056.33,-29.3711 1063.8,-36.8909 1066.86,-30.5953"/>
</g>
<!-- 18 -->
<g id="node19" class="node"><title>18</title>
<ellipse fill="none" stroke="black" cx="891" cy="-90" rx="27" ry="18"/>
<text text-anchor="middle" x="891" y="-86.3" font-family="Times,serif" font-size="14.00">18</text>
</g>
<!-- 18&#45;&gt;24 -->
<g id="edge26" class="edge"><title>18&#45;&gt;24</title>
<path fill="none" stroke="black" d="M869.75,-78.7798C864.919,-76.5082 859.797,-74.1404 855,-72 823.24,-57.8294 786.552,-42.5147 760.986,-32.0095"/>
<polygon fill="black" stroke="black" points="762.011,-28.6469 751.43,-28.0941 759.357,-35.1243 762.011,-28.6469"/>
</g>
<!-- 18&#45;&gt;26 -->
<g id="edge39" class="edge"><title>18&#45;&gt;26</title>
<path fill="none" stroke="black" d="M905.57,-74.8345C915.75,-64.9376 929.524,-51.5462 941.031,-40.3591"/>
<polygon fill="black" stroke="black" points="943.474,-42.865 948.204,-33.3847 938.595,-37.8461 943.474,-42.865"/>
</g>
<!-- 18&#45;&gt;27 -->
<g id="edge46" class="edge"><title>18&#45;&gt;27</title>
<path fill="none" stroke="black" d="M870.467,-78.0606C865.511,-75.7716 860.155,-73.5773 855,-72 754.381,-41.2146 724.285,-56.1056 621,-36 608.812,-33.6274 595.56,-30.6222 583.787,-27.8007"/>
<polygon fill="black" stroke="black" points="584.43,-24.355 573.886,-25.3889 582.773,-31.1561 584.43,-24.355"/>
</g>
<!-- 18&#45;&gt;28 -->
<g id="edge57" class="edge"><title>18&#45;&gt;28</title>
<path fill="none" stroke="black" d="M912.248,-78.6713C936.602,-66.8324 976.719,-47.3312 1004.43,-33.8615"/>
<polygon fill="black" stroke="black" points="1006.2,-36.8909 1013.67,-29.3711 1003.14,-30.5953 1006.2,-36.8909"/>
</g>
<!-- 19 -->
<g id="node20" class="node"><title>19</title>
<ellipse fill="none" stroke="black" cx="1251" cy="-90" rx="27" ry="18"/>
<text text-anchor="middle" x="1251" y="-86.3" font-family="Times,serif" font-size="14.00">19</text>
</g>
<!-- 19&#45;&gt;26 -->
<g id="edge40" class="edge"><title>19&#45;&gt;26</title>
<path fill="none" stroke="black" d="M1230.45,-78.1072C1225.5,-75.8164 1220.15,-73.6095 1215,-72 1122.11,-42.9447 1091.89,-65.0553 999,-36 997.07,-35.3964 995.112,-34.7089 993.156,-33.9644"/>
<polygon fill="black" stroke="black" points="994.121,-30.5719 983.548,-29.8928 991.39,-37.0171 994.121,-30.5719"/>
</g>
<!-- 19&#45;&gt;28 -->
<g id="edge58" class="edge"><title>19&#45;&gt;28</title>
<path fill="none" stroke="black" d="M1229.92,-78.3773C1225.08,-76.1266 1219.91,-73.869 1215,-72 1165.6,-53.1947 1106.52,-36.9376 1069.87,-27.5522"/>
<polygon fill="black" stroke="black" points="1070.71,-24.1537 1060.15,-25.0908 1068.99,-30.9394 1070.71,-24.1537"/>
</g>
</g>
</svg>
