<?xml version="1.0" encoding="UTF-8" standalone="no"?>
<!DOCTYPE svg PUBLIC "-//W3C//DTD SVG 1.1//EN"
 "http://www.w3.org/Graphics/SVG/1.1/DTD/svg11.dtd">
<!-- Generated by graphviz version 2.36.0 (20140111.2315)
 -->
<!-- Title: lala Pages: 1 -->
<svg width="566pt" height="116pt"
 viewBox="0.00 0.00 566.00 116.00" xmlns="http://www.w3.org/2000/svg" xmlns:xlink="http://www.w3.org/1999/xlink">
<g id="graph0" class="graph" transform="scale(1 1) rotate(0) translate(4 112)">
<title>lala</title>
<polygon fill="white" stroke="none" points="-4,4 -4,-112 562,-112 562,4 -4,4"/>
<!-- 0 -->
<g id="node1" class="node"><title>0</title>
<ellipse fill="none" stroke="black" cx="243" cy="-90" rx="27" ry="18"/>
<text text-anchor="middle" x="243" y="-86.3" font-family="Times,serif" font-size="14.00">0</text>
</g>
<!-- 7 -->
<g id="node8" class="node"><title>7</title>
<ellipse fill="none" stroke="black" cx="315" cy="-18" rx="27" ry="18"/>
<text text-anchor="middle" x="315" y="-14.3" font-family="Times,serif" font-size="14.00">7</text>
</g>
<!-- 0&#45;&gt;7 -->
<g id="edge1" class="edge"><title>0&#45;&gt;7</title>
<path fill="none" stroke="black" d="M257.57,-74.8345C267.75,-64.9376 281.524,-51.5462 293.031,-40.3591"/>
<polygon fill="black" stroke="black" points="295.474,-42.865 300.204,-33.3847 290.595,-37.8461 295.474,-42.865"/>
</g>
<!-- 11 -->
<g id="node12" class="node"><title>11</title>
<ellipse fill="none" stroke="black" cx="243" cy="-18" rx="27" ry="18"/>
<text text-anchor="middle" x="243" y="-14.3" font-family="Times,serif" font-size="14.00">11</text>
</g>
<!-- 0&#45;&gt;11 -->
<g id="edge16" class="edge"><title>0&#45;&gt;11</title>
<path fill="none" stroke="black" d="M243,-71.6966C243,-63.9827 243,-54.7125 243,-46.1124"/>
<polygon fill="black" stroke="black" points="246.5,-46.1043 243,-36.1043 239.5,-46.1044 246.5,-46.1043"/>
</g>
<!-- 1 -->
<g id="node2" class="node"><title>1</title>
<ellipse fill="none" stroke="black" cx="171" cy="-90" rx="27" ry="18"/>
<text text-anchor="middle" x="171" y="-86.3" font-family="Times,serif" font-size="14.00">1</text>
</g>
<!-- 1&#45;&gt;11 -->
<g id="edge15" class="edge"><title>1&#45;&gt;11</title>
<path fill="none" stroke="black" d="M185.57,-74.8345C195.75,-64.9376 209.524,-51.5462 221.031,-40.3591"/>
<polygon fill="black" stroke="black" points="223.474,-42.865 228.204,-33.3847 218.595,-37.8461 223.474,-42.865"/>
</g>
<!-- 2 -->
<g id="node3" class="node"><title>2</title>
<ellipse fill="none" stroke="black" cx="27" cy="-90" rx="27" ry="18"/>
<text text-anchor="middle" x="27" y="-86.3" font-family="Times,serif" font-size="14.00">2</text>
</g>
<!-- 8 -->
<g id="node9" class="node"><title>8</title>
<ellipse fill="none" stroke="black" cx="99" cy="-18" rx="27" ry="18"/>
<text text-anchor="middle" x="99" y="-14.3" font-family="Times,serif" font-size="14.00">8</text>
</g>
<!-- 2&#45;&gt;8 -->
<g id="edge5" class="edge"><title>2&#45;&gt;8</title>
<path fill="none" stroke="black" d="M41.5703,-74.8345C51.7499,-64.9376 65.5239,-51.5462 77.0306,-40.3591"/>
<polygon fill="black" stroke="black" points="79.4741,-42.865 84.2043,-33.3847 74.5945,-37.8461 79.4741,-42.865"/>
</g>
<!-- 9 -->
<g id="node10" class="node"><title>9</title>
<ellipse fill="none" stroke="black" cx="171" cy="-18" rx="27" ry="18"/>
<text text-anchor="middle" x="171" y="-14.3" font-family="Times,serif" font-size="14.00">9</text>
</g>
<!-- 2&#45;&gt;9 -->
<g id="edge9" class="edge"><title>2&#45;&gt;9</title>
<path fill="none" stroke="black" d="M48.2477,-78.6713C72.6018,-66.8324 112.719,-47.3312 140.428,-33.8615"/>
<polygon fill="black" stroke="black" points="142.202,-36.8909 149.665,-29.3711 139.141,-30.5953 142.202,-36.8909"/>
</g>
<!-- 3 -->
<g id="node4" class="node"><title>3</title>
<ellipse fill="none" stroke="black" cx="387" cy="-90" rx="27" ry="18"/>
<text text-anchor="middle" x="387" y="-86.3" font-family="Times,serif" font-size="14.00">3</text>
</g>
<!-- 3&#45;&gt;7 -->
<g id="edge2" class="edge"><title>3&#45;&gt;7</title>
<path fill="none" stroke="black" d="M372.43,-74.8345C362.25,-64.9376 348.476,-51.5462 336.969,-40.3591"/>
<polygon fill="black" stroke="black" points="339.405,-37.8461 329.796,-33.3847 334.526,-42.865 339.405,-37.8461"/>
</g>
<!-- 3&#45;&gt;8 -->
<g id="edge4" class="edge"><title>3&#45;&gt;8</title>
<path fill="none" stroke="black" d="M366.452,-78.1072C361.497,-75.8164 356.145,-73.6095 351,-72 258.114,-42.9447 227.886,-65.0553 135,-36 133.07,-35.3964 131.112,-34.7089 129.156,-33.9644"/>
<polygon fill="black" stroke="black" points="130.121,-30.5719 119.548,-29.8928 127.39,-37.0171 130.121,-30.5719"/>
</g>
<!-- 3&#45;&gt;9 -->
<g id="edge8" class="edge"><title>3&#45;&gt;9</title>
<path fill="none" stroke="black" d="M365.972,-78.2261C361.129,-75.9832 355.947,-73.767 351,-72 288.875,-49.8086 269.125,-58.1914 207,-36 205.145,-35.3374 203.257,-34.6116 201.366,-33.8449"/>
<polygon fill="black" stroke="black" points="202.594,-30.5622 192.028,-29.7739 199.796,-36.9789 202.594,-30.5622"/>
</g>
<!-- 10 -->
<g id="node11" class="node"><title>10</title>
<ellipse fill="none" stroke="black" cx="387" cy="-18" rx="27" ry="18"/>
<text text-anchor="middle" x="387" y="-14.3" font-family="Times,serif" font-size="14.00">10</text>
</g>
<!-- 3&#45;&gt;10 -->
<g id="edge12" class="edge"><title>3&#45;&gt;10</title>
<path fill="none" stroke="black" d="M387,-71.6966C387,-63.9827 387,-54.7125 387,-46.1124"/>
<polygon fill="black" stroke="black" points="390.5,-46.1043 387,-36.1043 383.5,-46.1044 390.5,-46.1043"/>
</g>
<!-- 3&#45;&gt;11 -->
<g id="edge17" class="edge"><title>3&#45;&gt;11</title>
<path fill="none" stroke="black" d="M365.752,-78.6713C341.398,-66.8324 301.281,-47.3312 273.572,-33.8615"/>
<polygon fill="black" stroke="black" points="274.859,-30.5953 264.335,-29.3711 271.798,-36.8909 274.859,-30.5953"/>
</g>
<!-- 12 -->
<g id="node13" class="node"><title>12</title>
<ellipse fill="none" stroke="black" cx="459" cy="-18" rx="27" ry="18"/>
<text text-anchor="middle" x="459" y="-14.3" font-family="Times,serif" font-size="14.00">12</text>
</g>
<!-- 3&#45;&gt;12 -->
<g id="edge20" class="edge"><title>3&#45;&gt;12</title>
<path fill="none" stroke="black" d="M401.57,-74.8345C411.75,-64.9376 425.524,-51.5462 437.031,-40.3591"/>
<polygon fill="black" stroke="black" points="439.474,-42.865 444.204,-33.3847 434.595,-37.8461 439.474,-42.865"/>
</g>
<!-- 13 -->
<g id="node14" class="node"><title>13</title>
<ellipse fill="none" stroke="black" cx="531" cy="-18" rx="27" ry="18"/>
<text text-anchor="middle" x="531" y="-14.3" font-family="Times,serif" font-size="14.00">13</text>
</g>
<!-- 3&#45;&gt;13 -->
<g id="edge23" class="edge"><title>3&#45;&gt;13</title>
<path fill="none" stroke="black" d="M408.248,-78.6713C432.602,-66.8324 472.719,-47.3312 500.428,-33.8615"/>
<polygon fill="black" stroke="black" points="502.202,-36.8909 509.665,-29.3711 499.141,-30.5953 502.202,-36.8909"/>
</g>
<!-- 4 -->
<g id="node5" class="node"><title>4</title>
<ellipse fill="none" stroke="black" cx="459" cy="-90" rx="27" ry="18"/>
<text text-anchor="middle" x="459" y="-86.3" font-family="Times,serif" font-size="14.00">4</text>
</g>
<!-- 4&#45;&gt;10 -->
<g id="edge14" class="edge"><title>4&#45;&gt;10</title>
<path fill="none" stroke="black" d="M444.43,-74.8345C434.25,-64.9376 420.476,-51.5462 408.969,-40.3591"/>
<polygon fill="black" stroke="black" points="411.405,-37.8461 401.796,-33.3847 406.526,-42.865 411.405,-37.8461"/>
</g>
<!-- 4&#45;&gt;12 -->
<g id="edge22" class="edge"><title>4&#45;&gt;12</title>
<path fill="none" stroke="black" d="M459,-71.6966C459,-63.9827 459,-54.7125 459,-46.1124"/>
<polygon fill="black" stroke="black" points="462.5,-46.1043 459,-36.1043 455.5,-46.1044 462.5,-46.1043"/>
</g>
<!-- 4&#45;&gt;13 -->
<g id="edge25" class="edge"><title>4&#45;&gt;13</title>
<path fill="none" stroke="black" d="M473.57,-74.8345C483.75,-64.9376 497.524,-51.5462 509.031,-40.3591"/>
<polygon fill="black" stroke="black" points="511.474,-42.865 516.204,-33.3847 506.595,-37.8461 511.474,-42.865"/>
</g>
<!-- 5 -->
<g id="node6" class="node"><title>5</title>
<ellipse fill="none" stroke="black" cx="315" cy="-90" rx="27" ry="18"/>
<text text-anchor="middle" x="315" y="-86.3" font-family="Times,serif" font-size="14.00">5</text>
</g>
<!-- 5&#45;&gt;7 -->
<g id="edge3" class="edge"><title>5&#45;&gt;7</title>
<path fill="none" stroke="black" d="M315,-71.6966C315,-63.9827 315,-54.7125 315,-46.1124"/>
<polygon fill="black" stroke="black" points="318.5,-46.1043 315,-36.1043 311.5,-46.1044 318.5,-46.1043"/>
</g>
<!-- 5&#45;&gt;8 -->
<g id="edge6" class="edge"><title>5&#45;&gt;8</title>
<path fill="none" stroke="black" d="M293.972,-78.2261C289.129,-75.9832 283.947,-73.767 279,-72 216.875,-49.8086 197.125,-58.1914 135,-36 133.145,-35.3374 131.257,-34.6116 129.366,-33.8449"/>
<polygon fill="black" stroke="black" points="130.594,-30.5622 120.028,-29.7739 127.796,-36.9789 130.594,-30.5622"/>
</g>
<!-- 5&#45;&gt;9 -->
<g id="edge10" class="edge"><title>5&#45;&gt;9</title>
<path fill="none" stroke="black" d="M293.752,-78.6713C269.398,-66.8324 229.281,-47.3312 201.572,-33.8615"/>
<polygon fill="black" stroke="black" points="202.859,-30.5953 192.335,-29.3711 199.798,-36.8909 202.859,-30.5953"/>
</g>
<!-- 5&#45;&gt;10 -->
<g id="edge13" class="edge"><title>5&#45;&gt;10</title>
<path fill="none" stroke="black" d="M329.57,-74.8345C339.75,-64.9376 353.524,-51.5462 365.031,-40.3591"/>
<polygon fill="black" stroke="black" points="367.474,-42.865 372.204,-33.3847 362.595,-37.8461 367.474,-42.865"/>
</g>
<!-- 5&#45;&gt;11 -->
<g id="edge18" class="edge"><title>5&#45;&gt;11</title>
<path fill="none" stroke="black" d="M300.43,-74.8345C290.25,-64.9376 276.476,-51.5462 264.969,-40.3591"/>
<polygon fill="black" stroke="black" points="267.405,-37.8461 257.796,-33.3847 262.526,-42.865 267.405,-37.8461"/>
</g>
<!-- 5&#45;&gt;12 -->
<g id="edge21" class="edge"><title>5&#45;&gt;12</title>
<path fill="none" stroke="black" d="M336.248,-78.6713C360.602,-66.8324 400.719,-47.3312 428.428,-33.8615"/>
<polygon fill="black" stroke="black" points="430.202,-36.8909 437.665,-29.3711 427.141,-30.5953 430.202,-36.8909"/>
</g>
<!-- 5&#45;&gt;13 -->
<g id="edge24" class="edge"><title>5&#45;&gt;13</title>
<path fill="none" stroke="black" d="M336.028,-78.2261C340.871,-75.9832 346.053,-73.767 351,-72 413.125,-49.8086 432.875,-58.1914 495,-36 496.855,-35.3374 498.743,-34.6116 500.634,-33.8449"/>
<polygon fill="black" stroke="black" points="502.204,-36.9789 509.972,-29.7739 499.406,-30.5622 502.204,-36.9789"/>
</g>
<!-- 6 -->
<g id="node7" class="node"><title>6</title>
<ellipse fill="none" stroke="black" cx="99" cy="-90" rx="27" ry="18"/>
<text text-anchor="middle" x="99" y="-86.3" font-family="Times,serif" font-size="14.00">6</text>
</g>
<!-- 6&#45;&gt;8 -->
<g id="edge7" class="edge"><title>6&#45;&gt;8</title>
<path fill="none" stroke="black" d="M99,-71.6966C99,-63.9827 99,-54.7125 99,-46.1124"/>
<polygon fill="black" stroke="black" points="102.5,-46.1043 99,-36.1043 95.5001,-46.1044 102.5,-46.1043"/>
</g>
<!-- 6&#45;&gt;9 -->
<g id="edge11" class="edge"><title>6&#45;&gt;9</title>
<path fill="none" stroke="black" d="M113.57,-74.8345C123.75,-64.9376 137.524,-51.5462 149.031,-40.3591"/>
<polygon fill="black" stroke="black" points="151.474,-42.865 156.204,-33.3847 146.595,-37.8461 151.474,-42.865"/>
</g>
<!-- 6&#45;&gt;11 -->
<g id="edge19" class="edge"><title>6&#45;&gt;11</title>
<path fill="none" stroke="black" d="M120.248,-78.6713C144.602,-66.8324 184.719,-47.3312 212.428,-33.8615"/>
<polygon fill="black" stroke="black" points="214.202,-36.8909 221.665,-29.3711 211.141,-30.5953 214.202,-36.8909"/>
</g>
</g>
</svg>
